<svg width="940" height="293" viewBox="0 0 940 293" fill="none" xmlns="http://www.w3.org/2000/svg">
<path d="M85.5 291.8C63.3 290.6 39.2 288.2 37.2 287.1C36.3 286.5 35.7 286 36 286C53.6 283.8 61.5 283 65.7 283C70.5 283 71.1 282.7 72.5 280C73.3 278.4 77 273.8 80.6 269.8C87.7 261.9 88.3 261 91.3 250.5C96.8 231.1 96.5 179 90.7 170.1C85.3 161.8 81.7 149.4 80.4 134.8C79.8 127.3 79.5 126.6 73.7 118.3C70.3 113.4 67 108.9 66.3 108.2C65.6 107.5 64.3 105.6 63.3 103.9C61.7 101.1 61.1 100.9 57.8 101.3C49.2 102.4 37.6 110.9 33.5 119C32.2 121.6 30.4 124 29.5 124.4C28.6 124.7 23.8 125 18.8 125H9.69999L5.89999 121C1.49999 116.4 -0.500012 110.7 0.399988 105.8C0.699988 103.9 4.59999 95.4 8.89999 86.9C13.2 78.4 17.2 69 17.9 66C19.7 58.3 21.2 55.2 27.3 47.3L32.7 40.4L30.3 36.9C22.1 25.2 17.3 5 22.6 5C24.8 5 40.4 20.9 42.3 25.2C43.3 27.2 44.4 29.1 44.8 29.4C45.2 29.6 45.4 25 45.2 19.2C45 11.8 45.3 7.3 46.3 4.5L47.7 0.5L53.7 6.5C60.8 13.6 67 25.4 67 31.7C67 36.3 67.8 37.1 74 39C80 40.8 80.3 41 79 42.5C78.2 43.4 78.7 44 81.2 45C92.1 49.2 94.2 50.4 92.5 51.6C91.2 52.6 92.3 53.4 99.7 57.1C105.1 59.7 107.8 61.5 106.8 61.8C104.4 62.3 104.5 63.7 107.1 65C108.2 65.7 109.9 66.8 110.8 67.5C111.7 68.3 114.5 70.5 116.8 72.4C119.2 74.4 121.6 76 122 76C122.5 76 125.5 72.7 128.8 68.7C132.1 64.7 138.9 57.7 143.9 53.1C151.5 46.2 152.9 44.4 152.4 42.5C152 40.9 152.5 39.8 154.1 38.6L156.4 37L153.5 33.9C151.8 32.2 148.1 29.2 145.3 27.3C142.4 25.5 140 23.3 140 22.5C140 19.2 149.9 17.1 156.7 18.9C160.5 19.9 161.2 19.8 164.6 17.5C169.1 14.4 176.4 14 178.1 16.8C179 18.2 180.4 18.5 186.8 18.2C192.5 17.9 195 18.2 196.5 19.3C198.4 20.8 198.1 21.2 188.7 30C183.4 35.1 179 39.7 179 40.2C179 41.4 180.2 42.5 187.5 48C190.8 50.5 195.1 53.9 197 55.7C198.9 57.4 201.6 59.8 202.9 60.9L205.3 63L208.9 60.3C216 54.9 217.4 53.2 216.2 51.7C215.3 50.7 215.4 49.8 216.6 48.1C218 46.1 218 45.7 216.6 43.5C215.7 42.1 214.6 41 214.2 41C213.7 41 211.2 38.9 208.6 36.4C204.3 32.3 203.9 31.7 205.3 30.3C206.9 28.7 217.6 28.1 221.7 29.4C222.9 29.8 224.3 29.5 225.2 28.7C229.5 24.4 236.9 23.6 239.5 27.2C240.9 29.2 241.7 29.4 247.5 29.2C253.8 28.8 254 28.9 254 31.2C254 32.9 251.7 35.8 246.5 40.9C242.4 44.9 239 48.7 239 49.4C239 50 243 53.9 247.9 57.8C256.8 65 269 76.8 269 78.1C269 78.5 269.6 79.5 270.3 80.2C272.5 82.4 278 94.7 278 97.4C278 99.3 279 100.6 281.8 102.4C287 105.6 294.5 113.3 298.6 119.5C303.7 127.1 305.8 134.8 307.4 150.5C308.8 164.7 309.5 167 314.8 176.3C319.1 183.7 320.6 186.6 321.7 190C323.4 195.2 324.2 204.3 323.2 206.9C322.4 209.1 322 208.8 315.3 201.6C304.2 189.7 303.6 188.2 302.8 165C302.1 144.8 301.5 139.9 298.5 131.5C295.2 121.9 294.5 123 294.5 137.3C294.5 144.6 294.1 155.6 293.6 161.8C292.2 179.1 295.4 192.7 302.9 201.2C307.8 206.8 308.3 209.7 306.9 224.6C305.8 236.1 305.9 239.5 307.5 252.9C309.4 268.7 309 273 305.5 273C304.5 273 304 274 304 276.1C304 277.8 303.5 280.1 302.9 281.2C301.4 284.1 303.1 284.9 310.5 285.1C313.8 285.1 318.3 285.7 320.5 286.4L324.5 287.6L320.5 288.2C314.9 289.1 293 290.8 270.5 292C248.2 293.2 108.9 293.1 85.5 291.8ZM279.4 279C280.1 277 282.1 273.3 283.9 270.7C287.9 264.8 289.2 257.5 288.5 245.5C287.1 224 285.2 219.1 273.4 206.8C270.1 203.3 266.1 198.8 264.6 196.8C263 194.7 261.3 193 260.7 193C259.2 193 260.5 205.5 263 213.3C265.4 221.2 266 219.4 255.9 237C247.3 252.2 244.5 258.5 242.5 267.8C242 270.3 241.2 271.2 239.1 271.6C236.6 272.1 236.3 272.6 236.3 276.6V281L248.9 281.1C255.8 281.2 264.4 281.6 268 282C277.5 283.1 278 282.9 279.4 279ZM121.6 280.4C123.7 280 125.3 278.5 127.3 275.2C128.8 272.6 131.2 268.7 132.5 266.5C134.8 262.8 135 261.5 135 249.1C135 238.5 134.6 234.5 133.1 230.1C132.1 227 130.7 221.1 130.1 217C128.7 208.2 123.7 190.3 122.2 188.8C121.4 188 120.8 188.4 120.1 190.1C119.6 191.4 118.3 194.8 117.2 197.5C114 205.4 112 214.7 112 221.1C112 225.3 111.3 228.5 109.3 232.7C106.3 239.3 105.4 243.4 104 257.4C102.8 269.8 102.5 270.7 99.2 271.5C96.8 272 96.5 272.5 96.5 276.5V281H107.6C113.7 281 120 280.7 121.6 280.4ZM215 275.2C216.4 272.6 219.8 268.2 222.6 265.4C229.3 258.6 231.2 255.9 237.1 244C246.1 225.9 246.6 223.2 242 214.5C237.6 206 225 185.1 224.1 184.5C223.6 184.3 220.2 185.1 216.4 186.4C204.3 190.5 198.1 191.5 184 191.4C174.5 191.4 168.5 190.9 163.7 189.6C159.9 188.7 156.6 188.1 156.2 188.4C155.4 189.3 154.2 202.3 153.1 221.8C152.2 237.9 152.4 243.4 154.7 265.2C155.1 269.4 154.9 270 152.6 271.5C150.7 272.8 150 274.1 150 276.4V279.5L181.3 279.7L212.6 279.8L215 275.2ZM141.9 271.3C141.9 269.7 141.6 269.1 141.3 270C141 270.8 140.3 272.1 139.7 272.8C139 273.6 139.2 274 140.4 274C141.5 274 142 273.2 141.9 271.3ZM296 271.5C296 270.1 297.1 267.8 298.4 266.5C300.6 264.3 300.7 263.8 299.8 259.3C299.2 256.7 298.7 244.9 298.6 233.2L298.5 211.8L294.9 208.1C290.8 203.8 288.6 199.3 286.2 191.2C284.9 186.6 284.6 180.3 284.5 159C284.5 133.5 283.9 127.4 281.1 123.1C280.4 122 280.1 122.2 279.6 123.8C278.1 128.5 266.5 136.9 259.3 138.5C256.9 139 256 139.7 256 141.1C256 144.3 253.2 148.9 250.2 150.4C248.6 151.2 242.6 152.1 235.9 152.5L224.4 153.2L212.4 165C199.4 177.7 199.4 177.5 212.6 172.7C224.1 168.5 236.1 160.6 238.1 155.8C239.1 153.4 239.8 153 243.1 153C245.3 153 247 153.4 247 153.9C247 157 267.6 184.5 281.9 200.4C294.7 214.6 297.4 223.9 296.9 251C296.6 263.9 296.1 268.2 294.8 270.8C293.4 273.4 293.4 274 294.6 274C295.4 274 296 273 296 271.5ZM145.1 253.9C142.8 232.2 144.3 202.2 149.2 171.1L150.4 163H154.2H157.9L159.2 169.2L160.6 175.4L162.2 170.5C163.1 167.7 164.1 163.3 164.5 160.5C164.9 157.8 165.4 154.7 165.7 153.8C166.1 152.2 165.4 152 160.3 152C153.2 152 145.4 149.7 142.2 146.7C138.7 143.5 137.4 140.4 135 130.4C129.1 105 126 96.7 121.1 92.2C111.5 83.5 74.1 55 64.9 49.4L59 45.9V39C59 32.8 56.7 24 55.3 25.3C55 25.6 55.3 28.2 55.9 31C56.5 33.8 57 38.6 57 41.6C57 46.9 56.9 47.1 53.3 48.7C48.3 51 39 57.2 36.6 59.9L34.7 62H42.4H50.1L49.8 65.7C49.6 68.7 48.8 69.9 46.1 71.7C44.2 73 41.7 74 40.4 74C38.7 74 37.9 74.7 37.4 76.5C36.9 78.6 36.2 79 33.4 79C30.1 79 30 78.8 30 75.3V71.5L26.1 78C17.4 92.3 14 98.2 14 98.6C14 98.8 15.8 99 18 99H22V103.6C22 106.1 21.5 109 21 110.1C20.1 111.7 20.3 112 22.5 112C24.2 112 25.4 111.2 26.1 109.8C28 105.7 42.9 94.7 48.4 93.3C57.9 90.9 61.7 85.8 62.8 74.3L63.5 67.5L67.2 67.2C71.3 66.9 70.8 66.2 73 76C73.5 78.5 74 82.8 74 85.7C74 90.5 74.8 92.2 83 106C95.9 127.5 96.2 128.1 104.1 143.5C111.2 157.7 112 158.7 125 170.4C127.9 172.9 129.2 175.5 131.8 183.5C136.9 199.6 139 208.2 139 212.9C139 215.3 139.9 220.4 141.1 224.2C142.9 230.3 143.1 233.3 142.8 249.5C142.5 267.5 142.5 267.9 144.4 266.1C146.1 264.4 146.1 263.5 145.1 253.9ZM191.2 159.3L197.8 153H189.9H182V157.4C182 159.8 181.7 163.3 181.3 165.1C180.7 168.3 180.8 168.4 182.6 167C183.6 166.2 187.5 162.7 191.2 159.3ZM154.6 134.5C153.5 133.7 152.1 133 151.6 133C151 133 151.4 133.7 152.4 134.5C153.5 135.3 154.9 136 155.4 136C156 136 155.6 135.3 154.6 134.5ZM256.3 118.9C261.4 117.5 266.5 112.8 268.5 107.6C269.9 104.1 270 102.6 269 99.1C267.1 92.1 260.5 81.7 254.1 75.6L251 72.6V75.1C251 76.4 250.7 78.4 250.5 79.5C250.1 81 250.7 81.9 253.2 83C257.7 85.1 259.1 88.3 258.8 96C258.5 102.1 258.3 102.6 255.3 104.5C252.8 106.1 252.1 107.2 252 109.8V113H246.6C241.4 113 241.1 112.9 240.8 110.3C240.6 108 239.9 107.4 237 106.9C235.1 106.6 231.8 105.6 229.8 104.7C226.6 103.4 226 102.6 226 100.1C226 95.3 228 92 230.9 91.9C233.3 91.9 233.3 91.8 230.1 90.6C228.3 90 225.8 88.3 224.6 86.9L222.5 84.5L222.8 96L223.1 107.5L226.4 110.5C234.9 118.1 247 121.5 256.3 118.9ZM194.3 115C199.7 113 205.4 107.9 208 102.7C211.8 95 207.5 81.3 198 70.9L193.1 65.5L193 69.3C193 71.6 192.3 73.7 191 75C189 77 189 77 191.5 77.6C192.9 77.9 195.1 79.6 196.5 81.2C198.6 83.7 199 85.2 199 91C199 97.4 198.8 98 195.9 100.4C194.2 101.8 192 103 190.9 103C189.4 103 189 103.7 189 106.5V110H183.1H177.1L176.8 106.8C176.5 103.8 176.1 103.5 172.5 102.9C165.8 102 162.5 99.9 162.2 96.3C161.7 91.5 164.5 88 168.7 88C170.6 88 173 88.5 174.1 89C175.2 89.6 176 89.7 176 89.1C176 88.6 173.7 87.7 171 87C167.9 86.2 164.8 84.7 163 82.8C160.3 80.1 160 79.2 160 73.5C160 67.4 160.2 67 163.3 64.6C165.2 63.1 167.2 62 167.8 62C168.5 62 169 60.7 169 59C169 56 169.1 56 174.5 56C179.5 56 180.1 56.2 181.4 58.9C182.6 61.1 183.8 61.9 186.5 62.2L190.1 62.6L186.8 59.5C181.6 54.7 173.7 48.4 171.5 47.3C168.5 45.7 166.1 47.1 159.1 54.3C146 67.8 142.1 75.9 144.5 84.9C148 98.3 160.6 110.5 176.5 115.8C181.4 117.5 188.6 117.1 194.3 115ZM225.3 70.4C226.8 69.1 228 67.2 228 66C228 64.2 228.6 64 233.5 64C237.9 64 239.1 64.4 240 66C240.6 67.1 242.1 68 243.3 68C245.1 67.9 244.5 67 239.5 62.4C230.7 54.4 229.8 54.4 222.8 62.1C219.6 65.6 217 69 217 69.8C217 70.5 217.9 72.8 219 75C220.1 77.2 221.1 79.7 221.1 80.7C221.2 81.7 221.6 80.3 221.9 77.6C222.4 74.1 223.4 72.1 225.3 70.4Z" fill="#084828"/>
<path d="M132 276.2C132 275.8 133.3 273.9 134.8 272C139.2 266.6 140 263 140 247.6C140 236.4 139.6 232.2 138 227C136.9 223.4 136 218.5 136 216C136 211.2 133.9 202.7 128.8 186.5C126.2 178.5 124.9 175.9 122 173.4C109 161.7 108.2 160.7 101.1 146.5C93.2 131 93.2 131 79.5 108.2C70.9 93.7 70 91.7 70.5 88.6C71.1 85.7 70.1 77.7 68.4 71.7C67.4 68.4 66.3 70.9 65.8 77.4C64.9 88.6 60.8 93.9 51.4 96.3C44.7 98.1 30.7 109 28.6 114.2C26.3 119.8 20.7 121.8 22.7 116.3C23.1 115 22.6 115.2 20.3 117.3C16.6 120.7 14.4 120.7 11.4 117.2C5.09999 110 7.49999 99.4 19.7 80.8C22.2 76.9 25.7 70.6 27.5 66.6C31.7 57.4 38.8 50.9 50.4 45.7C54.1 44 54.2 43.8 53.6 39.7C53.3 37.4 52.7 30.1 52.4 23.5L51.8 11.5L54.5 15.3C60.2 23.5 62 28.4 62 35.8V42.9L67.9 46.4C77.1 52 114.5 80.5 124.1 89.2C129 93.7 132.1 102 138 127.4C140.4 137.4 141.7 140.5 145.2 143.7C148.4 146.7 156.2 149 163.3 149C168.9 149 169 149.1 169 151.8C169 156.9 167 167.5 164.8 174.3C162.8 180.5 162.4 181.1 160.1 180.8C158.4 180.6 157.4 179.8 157.2 178.5C156.5 172.9 154.8 166 154.1 166C153.3 166 150.7 183.1 148.6 202C146.9 216.9 147.1 246.9 148.9 258.8L150.2 267L147.6 269.1C145.9 270.5 145 272.1 145 274.1V277H138.5C134.9 277 132 276.7 132 276.2ZM15.6 110.2C17.1 109.2 19 105.5 19 103.6C19 102.6 18.1 102 16.5 102C13.6 102 11.5 105.9 12.5 109.1C13.2 111.1 13.9 111.4 15.6 110.2ZM37.1 71C39.6 71 44.2 68.7 45.9 66.6C47.1 65.2 46.6 65 42 65C35.2 65 33 66.8 33.1 72.4C33.2 76.3 33.2 76.4 34.2 73.8C34.8 72 35.9 71 37.1 71Z" fill="#8FBE33"/>
<path d="M286.6 275.8C287 275.1 288.4 273.2 289.6 271.5C293 266.8 294 261.6 294 247.5C293.9 225.6 290.9 216.7 278.9 203.4C264.6 187.5 244 160 244 156.9C244 154.9 242.2 156.2 241.1 158.8C237.9 166.6 216.5 177.2 197.5 180.6C186.3 182.6 186.2 182.5 192.2 177.8C195.1 175.5 202.9 168.4 209.5 161.9L221.5 150.2L233 149.5C239.5 149.1 245.7 148.2 247.2 147.4C250.2 145.9 253 141.3 253 138.1C253 136.7 253.9 136 256.3 135.5C264.7 133.6 274.7 125.7 277.7 118.4C278.7 116 279.8 114 280.2 114C281.4 114 285.6 123.2 286.9 128.5C287.6 131.7 288 142.3 287.8 158C287.6 178.1 287.9 183.5 289.2 188.2C291.6 196.4 293.9 200.8 298.1 205.3L301.9 209.2L301.7 228.4C301.6 240.5 302 251 302.9 257.1L304.3 266.6L301.7 269.3C300.2 270.7 299 273 299 274.5C299 276.9 298.8 277 292.4 277C287.5 277 286.1 276.7 286.6 275.8Z" fill="#8FBE33"/>
<path d="M175.1 176.3C176.7 172 179 159.3 179 154.4V150H192.6C203 150 205.9 150.3 205.4 151.2C203.4 154.4 176 179 174.4 179C174.2 179 174.5 177.8 175.1 176.3Z" fill="#8FBE33"/>
<path d="M179 139.8V137.5L198.6 137.8C218 138.1 218.2 138.1 216.5 140C214.8 141.8 213.3 142 196.8 142C179 142 179 142 179 139.8Z" fill="#8FBE33"/>
<path d="M230 140.9C230 139.2 233.1 138.2 239.3 137.8C246 137.4 247.1 137.8 244.8 139.8C243.4 140.9 230 141.9 230 140.9Z" fill="#8FBE33"/>
<path d="M158.5 140.3C150.3 138.4 148.9 137.8 147.5 135.1C146 132 141.8 117.9 142.3 117.3C142.5 117.1 144.1 119 145.8 121.4C149.4 126.4 157.9 132.4 164.5 134.7C168.2 135.9 169 136.6 169 138.6C169 140.8 168.6 141 164.8 140.9C162.4 140.8 159.6 140.6 158.5 140.3Z" fill="#8FBE33"/>
<path d="M239.4 122.1C234.5 120.9 227 116.8 222.4 112.7C218.6 109.3 218.2 108.6 219 106.4C220.4 102.7 220.2 91.3 218.6 85.4C217.9 82.5 216 77.9 214.5 75.1C211.2 69 211.3 68.5 219.5 59.3C223.2 55.2 225.9 53.1 228 52.6C231.4 52 236.3 53.7 239.5 56.6C240.6 57.7 245.6 62.1 250.5 66.5C264.5 79.2 271.6 90 272.7 100.6C273.7 110.5 268.1 119.5 259.3 121.9C255.1 123.1 244.1 123.2 239.4 122.1ZM248.8 107.1C248.6 104.7 249.2 103.7 252 101.7C255.2 99.6 255.5 98.9 255.4 94.7C255.4 89.1 253.3 86.5 247.8 84.8C241.5 82.9 238 76.2 243.9 77.3C246.6 77.9 248 76.8 248 74.1C248 72.9 243.2 71 240.5 71C239.1 71 237.6 70.2 237 69C236.4 67.8 234.9 67 233.4 67C231.3 67 231.1 67.3 232 68.9C232.8 70.5 232.6 71 231 71.5C228.5 72.3 225 76.7 225 79.1C225 82.5 229.8 86.8 235 88.1C239.6 89.3 240.1 89.7 241.1 93.3C241.7 95.4 242 97.4 241.7 97.6C241.5 97.8 239.1 97.3 236.5 96.5C233.8 95.7 231.5 95.2 231.4 95.3C231.3 95.4 230.7 96.5 230.1 97.8C229 99.9 229.2 100.2 232.7 101.7C234.8 102.6 238.1 103.6 240 103.9C242.9 104.4 243.6 105 243.8 107.3C244.1 109.4 244.7 110 246.6 110C248.8 110 249.1 109.6 248.8 107.1Z" fill="#8FBE33"/>
<path d="M246 94.5C244.8 91.3 244.7 90 245.8 90C247.2 90 249 92.3 249 94.1C249 97.1 247.1 97.3 246 94.5Z" fill="#8FBE33"/>
<path d="M233.8 80.9C231.9 79.9 232.4 77 234.5 77C235.7 77 237 79.1 237 81.1C237 82.3 236 82.2 233.8 80.9Z" fill="#8FBE33"/>
<path d="M173.5 118.8C161.7 114.9 149.7 105.5 144.8 96.3C136.3 80.5 139.4 68.4 156.4 51.1C163.4 43.8 167.1 42.1 172.4 43.4C175.9 44.3 185.1 51.9 196 62.9C208.7 75.6 212.4 82.8 212.4 94.6C212.5 103.7 211.5 106.5 206.1 112.3C201.2 117.5 194 120 184.2 119.9C180 119.9 175.2 119.4 173.5 118.8ZM186 103.5C186 100.7 186.4 100 187.9 100C189 100 191.2 98.8 192.9 97.4C199.1 92.2 196.1 83.6 186.9 80C183.5 78.6 182.3 77.6 181.6 75.1C180.5 71.2 181.3 70.3 184.7 71.9C187 73 187.6 72.9 188.7 71.4C189.4 70.4 190 69.1 190 68.5C190 67 185.6 65 182.5 65C180.8 65 179.6 64.1 178.5 62C177.4 59.9 176.2 59 174.5 59C172.3 59 172.1 59.3 172.7 62C173.1 64.4 172.9 65 171.5 65C170.5 65 168.2 66.1 166.3 67.6C159.5 72.7 163.6 81.5 173.9 84C178.8 85.1 178.8 85.2 179.2 89.6C179.6 94.7 178.5 95.1 172.3 92.5C168.7 91 168.5 91 166.9 93.2C165.9 94.4 165.4 95.8 165.7 96.3C166.5 97.5 171 99.2 175.5 99.9C179.1 100.4 179.5 100.8 179.8 103.8C180.1 106.6 180.5 107 183.1 107C185.8 107 186 106.7 186 103.5Z" fill="#8FBE33"/>
<path d="M184.5 90.4C183.7 86 184 85.6 186.8 87.6C189.5 89.5 189.6 91.6 187.1 92.9C185.5 93.8 185.1 93.5 184.5 90.4Z" fill="#8FBE33"/>
<path d="M172 75.4C170.9 74.2 171 73.6 172.3 72.2C174.2 70.4 175.4 71.1 176.5 74.8C177 76.5 176.7 77 175.2 77C174.1 77 172.7 76.3 172 75.4Z" fill="#8FBE33"/>
<path d="M224 46.2C224 45.7 221.4 42.7 218.3 39.6L212.5 33.8L218.4 34.4C223.7 35 224.7 34.8 228.1 32.5C233.3 29.1 235.4 29.2 234.6 32.8C232.7 41 232.7 42 234.4 42C235.2 42 236.2 40.9 236.6 39.5C237.3 36.7 239.7 35 243 35C244.8 35 244.4 35.9 239.8 41C234.2 47.2 230.7 48.7 229.5 45.1C229.2 44 228.2 42.6 227.3 41.8C225.5 40.4 225.5 40.4 227.6 45.5C228 46.6 227.6 47 226.1 47C224.9 47 224 46.6 224 46.2Z" fill="#8FBE33"/>
<path d="M169.3 37.2C168.7 36.8 167.7 35.2 167.1 33.7C166.5 32.2 165.6 31 165 31C164.4 31 164.4 31.9 165 33.6C166.3 36.9 166.3 37 164.6 37C163.8 37 160.5 34.3 157.1 31C153.7 27.7 150.5 25 150 25C149.4 25 149 24.6 149 24.1C149 22.4 151.9 22.2 157 23.5C162 24.8 162.4 24.8 166.1 22.4C168.2 21.1 170.9 20 172.1 20C174 20 174.2 20.4 173.6 23C173.3 24.7 172.7 27.4 172.4 29C171.5 33.4 173.8 32.8 175.8 28.2C177.6 23.9 180.7 22 185.9 22H189.4L181.9 29.9C174.9 37.3 172.1 39 169.3 37.2Z" fill="#8FBE33"/>
<path d="M439.68 131H427.776V60.824H439.68L462.336 116.696L484.992 60.824H497.088V131H485.184V109.4C485.184 105.88 485.184 102.936 485.184 100.568C485.184 98.136 485.216 96.088 485.28 94.424C485.344 92.76 485.408 91.288 485.472 90.008C485.536 88.728 485.664 87.448 485.856 86.168L468 131H456.672L438.912 86.264C439.232 88.376 439.424 91.064 439.488 94.328C439.616 97.592 439.68 101.432 439.68 105.848V131ZM508.108 107.192C508.108 102.264 509.196 97.944 511.372 94.232C513.548 90.456 516.556 87.512 520.396 85.4C524.236 83.288 528.588 82.232 533.452 82.232C538.38 82.232 542.732 83.288 546.508 85.4C550.348 87.512 553.356 90.456 555.532 94.232C557.708 97.944 558.796 102.264 558.796 107.192C558.796 112.12 557.708 116.472 555.532 120.248C553.356 123.96 550.348 126.872 546.508 128.984C542.732 131.096 538.38 132.152 533.452 132.152C528.588 132.152 524.236 131.096 520.396 128.984C516.556 126.872 513.548 123.96 511.372 120.248C509.196 116.472 508.108 112.12 508.108 107.192ZM519.82 107.192C519.82 110.072 520.396 112.6 521.548 114.776C522.764 116.952 524.364 118.648 526.348 119.864C528.396 121.08 530.764 121.688 533.452 121.688C536.14 121.688 538.508 121.08 540.556 119.864C542.604 118.648 544.204 116.952 545.356 114.776C546.508 112.6 547.084 110.072 547.084 107.192C547.084 104.248 546.508 101.72 545.356 99.608C544.204 97.432 542.604 95.736 540.556 94.52C538.508 93.304 536.14 92.696 533.452 92.696C530.764 92.696 528.396 93.304 526.348 94.52C524.364 95.736 522.764 97.432 521.548 99.608C520.396 101.72 519.82 104.248 519.82 107.192ZM579.791 131H568.079V83.576H578.927L579.887 89.72C581.359 87.352 583.439 85.496 586.127 84.152C588.879 82.808 591.855 82.136 595.055 82.136C601.007 82.136 605.487 83.896 608.495 87.416C611.567 90.936 613.103 95.736 613.103 101.816V131H601.391V104.6C601.391 100.632 600.495 97.688 598.703 95.768C596.911 93.784 594.479 92.792 591.407 92.792C587.759 92.792 584.911 93.944 582.863 96.248C580.815 98.552 579.791 101.624 579.791 105.464V131ZM645.827 132.248C641.155 132.248 636.995 131.192 633.347 129.08C629.763 126.904 626.947 123.96 624.898 120.248C622.851 116.472 621.827 112.152 621.827 107.288C621.827 102.36 622.819 98.008 624.803 94.232C626.787 90.456 629.571 87.512 633.155 85.4C636.739 83.224 640.835 82.136 645.443 82.136C650.243 82.136 654.371 83.16 657.827 85.208C661.283 87.192 663.939 89.976 665.795 93.56C667.715 97.144 668.675 101.432 668.675 106.424V109.976L627.971 110.072L628.163 102.584H657.059C657.059 99.32 656.003 96.696 653.891 94.712C651.843 92.728 649.059 91.736 645.539 91.736C642.787 91.736 640.451 92.312 638.531 93.464C636.675 94.616 635.267 96.344 634.307 98.648C633.347 100.952 632.867 103.768 632.867 107.096C632.867 112.216 633.955 116.088 636.131 118.712C638.371 121.336 641.667 122.648 646.019 122.648C649.219 122.648 651.843 122.04 653.891 120.824C656.003 119.608 657.379 117.88 658.019 115.64H668.867C667.843 120.824 665.283 124.888 661.187 127.832C657.155 130.776 652.035 132.248 645.827 132.248ZM683.462 83.576L698.918 127.352L692.582 139.352L671.078 83.576H683.462ZM672.326 152.984V143.288H679.334C680.87 143.288 682.214 143.096 683.366 142.712C684.518 142.392 685.542 141.752 686.438 140.792C687.398 139.832 688.198 138.424 688.838 136.568L708.518 83.576H720.614L697.382 141.56C695.654 145.912 693.478 149.08 690.854 151.064C688.23 153.048 684.966 154.04 681.062 154.04C679.398 154.04 677.83 153.944 676.358 153.752C674.95 153.624 673.606 153.368 672.326 152.984ZM740.899 131H728.995V60.824H740.899L763.555 116.696L786.211 60.824H798.307V131H786.403V109.4C786.403 105.88 786.403 102.936 786.403 100.568C786.403 98.136 786.435 96.088 786.499 94.424C786.563 92.76 786.627 91.288 786.691 90.008C786.755 88.728 786.883 87.448 787.075 86.168L769.219 131H757.891L740.131 86.264C740.451 88.376 740.643 91.064 740.707 94.328C740.835 97.592 740.899 101.432 740.899 105.848V131ZM844.271 83.576H855.983V131H845.135L844.271 124.664C842.863 126.904 840.751 128.728 837.935 130.136C835.119 131.544 832.111 132.248 828.911 132.248C823.471 132.248 819.215 130.52 816.143 127.064C813.071 123.608 811.535 119 811.535 113.24V83.576H823.247V109.112C823.247 113.592 824.111 116.824 825.839 118.808C827.567 120.792 830.063 121.784 833.327 121.784C837.039 121.784 839.791 120.696 841.583 118.52C843.375 116.28 844.271 112.92 844.271 108.44V83.576ZM879.887 131H868.271V59.576H879.887V131ZM913.389 132.248C908.717 132.248 904.557 131.192 900.909 129.08C897.325 126.904 894.509 123.96 892.461 120.248C890.413 116.472 889.389 112.152 889.389 107.288C889.389 102.36 890.381 98.008 892.365 94.232C894.349 90.456 897.133 87.512 900.717 85.4C904.301 83.224 908.397 82.136 913.005 82.136C917.805 82.136 921.933 83.16 925.389 85.208C928.845 87.192 931.501 89.976 933.357 93.56C935.277 97.144 936.237 101.432 936.237 106.424V109.976L895.533 110.072L895.725 102.584H924.621C924.621 99.32 923.565 96.696 921.453 94.712C919.405 92.728 916.621 91.736 913.101 91.736C910.349 91.736 908.013 92.312 906.093 93.464C904.237 94.616 902.829 96.344 901.869 98.648C900.909 100.952 900.429 103.768 900.429 107.096C900.429 112.216 901.517 116.088 903.693 118.712C905.933 121.336 909.229 122.648 913.581 122.648C916.781 122.648 919.405 122.04 921.453 120.824C923.565 119.608 924.941 117.88 925.581 115.64H936.429C935.405 120.824 932.845 124.888 928.749 127.832C924.717 130.776 919.597 132.248 913.389 132.248Z" fill="#084828"/>
<path d="M422.816 193.08C422.816 190.52 423.456 188.301 424.736 186.424C426.016 184.504 427.808 183.011 430.112 181.944C432.416 180.877 435.104 180.344 438.176 180.344C440.949 180.344 443.36 180.835 445.408 181.816C447.499 182.797 449.163 184.205 450.4 186.04C451.637 187.875 452.363 190.072 452.576 192.632H447.904C447.648 190.072 446.667 188.088 444.96 186.68C443.253 185.229 440.971 184.504 438.112 184.504C434.912 184.504 432.331 185.272 430.368 186.808C428.405 188.344 427.424 190.413 427.424 193.016C427.424 195.021 428.021 196.685 429.216 198.008C430.411 199.288 432.203 200.227 434.592 200.824L442.464 202.744C446.048 203.597 448.757 205.048 450.592 207.096C452.427 209.101 453.344 211.661 453.344 214.776C453.344 217.379 452.704 219.661 451.424 221.624C450.144 223.587 448.331 225.101 445.984 226.168C443.637 227.235 440.885 227.768 437.728 227.768C434.784 227.768 432.16 227.277 429.856 226.296C427.595 225.315 425.803 223.907 424.48 222.072C423.2 220.237 422.453 218.083 422.24 215.608H426.976C427.104 218.04 428.149 219.981 430.112 221.432C432.075 222.84 434.613 223.544 437.728 223.544C441.099 223.544 443.765 222.776 445.728 221.24C447.733 219.704 448.736 217.635 448.736 215.032C448.736 212.941 448.139 211.256 446.944 209.976C445.792 208.653 443.979 207.693 441.504 207.096L433.76 205.176C430.176 204.323 427.445 202.893 425.568 200.888C423.733 198.84 422.816 196.237 422.816 193.08ZM465.279 227H460.863V180.344H465.279V212.024L480.639 196.024H486.207L474.303 208.376L486.271 227H481.151L471.295 211.512L465.279 217.72V227ZM491.546 227V196.024H495.962V227H491.546ZM493.722 187.512C492.826 187.512 492.058 187.192 491.418 186.552C490.778 185.912 490.458 185.144 490.458 184.248C490.458 183.352 490.778 182.584 491.418 181.944C492.058 181.261 492.826 180.92 493.722 180.92C494.618 180.92 495.386 181.261 496.026 181.944C496.708 182.584 497.05 183.352 497.05 184.248C497.05 185.144 496.708 185.912 496.026 186.552C495.386 187.192 494.618 187.512 493.722 187.512ZM505.171 240.504V196.024H509.01L509.459 202.296C510.568 199.907 512.147 198.136 514.195 196.984C516.285 195.789 518.611 195.192 521.171 195.192C524.157 195.192 526.717 195.896 528.851 197.304C530.984 198.712 532.627 200.632 533.779 203.064C534.931 205.496 535.507 208.269 535.507 211.384C535.507 214.499 534.931 217.293 533.779 219.768C532.669 222.243 531.048 224.205 528.915 225.656C526.824 227.064 524.243 227.768 521.171 227.768C518.525 227.768 516.2 227.213 514.195 226.104C512.189 224.952 510.653 223.267 509.587 221.048V240.504H505.171ZM509.651 211.512C509.651 213.859 510.077 215.971 510.931 217.848C511.784 219.683 513 221.133 514.579 222.2C516.2 223.267 518.141 223.8 520.403 223.8C522.664 223.8 524.584 223.267 526.163 222.2C527.741 221.133 528.936 219.683 529.747 217.848C530.6 215.971 531.027 213.859 531.027 211.512C531.027 209.123 530.6 207.011 529.747 205.176C528.936 203.299 527.741 201.848 526.163 200.824C524.584 199.757 522.664 199.224 520.403 199.224C518.141 199.224 516.2 199.757 514.579 200.824C513 201.848 511.784 203.299 510.931 205.176C510.077 207.011 509.651 209.123 509.651 211.512ZM556.84 196.024H573.608V199.736H556.84V196.024ZM567.4 227H563.048V186.232H567.4V227ZM583.774 226.936H579.358V180.344H583.774V201.4C584.755 199.523 586.163 198.029 587.998 196.92C589.875 195.768 592.115 195.192 594.718 195.192C598.814 195.192 601.801 196.365 603.678 198.712C605.555 201.059 606.494 204.173 606.494 208.056V227H602.078V209.016C602.078 206.584 601.737 204.664 601.054 203.256C600.371 201.805 599.411 200.781 598.174 200.184C596.937 199.544 595.507 199.224 593.886 199.224C591.667 199.224 589.811 199.715 588.318 200.696C586.825 201.677 585.694 203 584.926 204.664C584.158 206.285 583.774 208.099 583.774 210.104V226.936ZM628.288 227.768C625.301 227.768 622.656 227.085 620.352 225.72C618.09 224.355 616.32 222.456 615.04 220.024C613.76 217.592 613.12 214.755 613.12 211.512C613.12 208.312 613.738 205.496 614.976 203.064C616.256 200.589 618.005 198.669 620.224 197.304C622.442 195.896 625.024 195.192 627.968 195.192C630.784 195.192 633.237 195.811 635.328 197.048C637.461 198.285 639.104 200.013 640.256 202.232C641.45 204.408 642.048 206.968 642.048 209.912V212.088H615.552L615.68 208.888H637.632C637.632 205.901 636.736 203.512 634.944 201.72C633.194 199.885 630.869 198.968 627.968 198.968C625.834 198.968 623.957 199.459 622.336 200.44C620.757 201.421 619.541 202.829 618.688 204.664C617.834 206.456 617.408 208.589 617.408 211.064C617.408 215.16 618.346 218.339 620.224 220.6C622.144 222.861 624.853 223.992 628.352 223.992C630.869 223.992 632.938 223.459 634.56 222.392C636.181 221.325 637.269 219.768 637.824 217.72H642.048C641.237 220.963 639.658 223.459 637.312 225.208C634.965 226.915 631.957 227.768 628.288 227.768ZM671.274 227H666.858V196.024H670.698L671.338 201.4C672.362 199.437 673.813 197.923 675.69 196.856C677.61 195.747 679.701 195.192 681.962 195.192C686.229 195.192 689.301 196.365 691.178 198.712C693.055 201.059 693.994 204.173 693.994 208.056V227H689.578V209.016C689.578 205.389 688.81 202.851 687.274 201.4C685.781 199.949 683.754 199.224 681.194 199.224C678.037 199.224 675.583 200.291 673.834 202.424C672.127 204.515 671.274 207.309 671.274 210.808V227ZM700.62 211.512C700.62 208.312 701.302 205.496 702.668 203.064C704.033 200.632 705.91 198.712 708.3 197.304C710.689 195.896 713.377 195.192 716.364 195.192C719.393 195.192 722.081 195.896 724.428 197.304C726.817 198.712 728.694 200.632 730.06 203.064C731.425 205.496 732.108 208.312 732.108 211.512C732.108 214.627 731.425 217.421 730.06 219.896C728.694 222.328 726.817 224.248 724.428 225.656C722.081 227.064 719.393 227.768 716.364 227.768C713.377 227.768 710.689 227.064 708.3 225.656C705.91 224.248 704.033 222.328 702.668 219.896C701.302 217.421 700.62 214.627 700.62 211.512ZM705.1 211.448C705.1 213.88 705.569 216.035 706.508 217.912C707.489 219.747 708.812 221.197 710.476 222.264C712.182 223.288 714.145 223.8 716.364 223.8C718.582 223.8 720.524 223.288 722.188 222.264C723.894 221.197 725.217 219.747 726.156 217.912C727.137 216.035 727.628 213.88 727.628 211.448C727.628 209.059 727.137 206.947 726.156 205.112C725.217 203.277 723.894 201.827 722.188 200.76C720.524 199.693 718.582 199.16 716.364 199.16C714.145 199.16 712.182 199.693 710.476 200.76C708.812 201.827 707.489 203.277 706.508 205.112C705.569 206.947 705.1 209.059 705.1 211.448ZM739.171 227V196.024H743.587V227H739.171ZM741.347 187.512C740.451 187.512 739.683 187.192 739.043 186.552C738.403 185.912 738.083 185.144 738.083 184.248C738.083 183.352 738.403 182.584 739.043 181.944C739.683 181.261 740.451 180.92 741.347 180.92C742.243 180.92 743.011 181.261 743.651 181.944C744.333 182.584 744.675 183.352 744.675 184.248C744.675 185.144 744.333 185.912 743.651 186.552C743.011 187.192 742.243 187.512 741.347 187.512ZM750.172 218.296H754.396C754.396 220.088 755.036 221.517 756.316 222.584C757.596 223.608 759.302 224.12 761.436 224.12C763.825 224.12 765.681 223.651 767.003 222.712C768.369 221.731 769.052 220.408 769.052 218.744C769.052 217.464 768.689 216.44 767.964 215.672C767.238 214.904 765.958 214.285 764.124 213.816L758.812 212.472C756.124 211.789 754.118 210.744 752.796 209.336C751.473 207.928 750.812 206.179 750.812 204.088C750.812 202.296 751.281 200.739 752.22 199.416C753.158 198.051 754.46 197.005 756.124 196.28C757.83 195.555 759.793 195.192 762.012 195.192C764.188 195.192 766.086 195.576 767.708 196.344C769.329 197.112 770.588 198.2 771.484 199.608C772.422 200.973 772.913 202.616 772.956 204.536H768.668C768.625 202.701 768.006 201.293 766.812 200.312C765.617 199.331 763.974 198.84 761.884 198.84C759.708 198.84 758.022 199.288 756.828 200.184C755.676 201.08 755.1 202.36 755.1 204.024C755.1 206.413 756.785 208.035 760.156 208.888L765.468 210.232C768.156 210.915 770.118 211.917 771.356 213.24C772.636 214.563 773.276 216.333 773.276 218.552C773.276 220.387 772.785 222.008 771.804 223.416C770.822 224.824 769.436 225.912 767.644 226.68C765.894 227.405 763.846 227.768 761.5 227.768C758.044 227.768 755.292 226.915 753.244 225.208C751.196 223.459 750.172 221.155 750.172 218.296ZM793.538 227.768C790.551 227.768 787.906 227.085 785.602 225.72C783.34 224.355 781.57 222.456 780.29 220.024C779.01 217.592 778.37 214.755 778.37 211.512C778.37 208.312 778.988 205.496 780.226 203.064C781.506 200.589 783.255 198.669 785.474 197.304C787.692 195.896 790.274 195.192 793.218 195.192C796.034 195.192 798.487 195.811 800.578 197.048C802.711 198.285 804.354 200.013 805.506 202.232C806.7 204.408 807.298 206.968 807.298 209.912V212.088H780.802L780.93 208.888H802.882C802.882 205.901 801.986 203.512 800.194 201.72C798.444 199.885 796.119 198.968 793.218 198.968C791.084 198.968 789.207 199.459 787.586 200.44C786.007 201.421 784.791 202.829 783.938 204.664C783.084 206.456 782.658 208.589 782.658 211.064C782.658 215.16 783.596 218.339 785.474 220.6C787.394 222.861 790.103 223.992 793.602 223.992C796.119 223.992 798.188 223.459 799.81 222.392C801.431 221.325 802.519 219.768 803.074 217.72H807.298C806.487 220.963 804.908 223.459 802.562 225.208C800.215 226.915 797.207 227.768 793.538 227.768Z" fill="#084828"/>
</svg>
